<svg width="14" height="14" viewBox="0 0 14 14" fill="none" xmlns="http://www.w3.org/2000/svg">
<path d="M7.70711 3.29289L10.7071 6.29289M9.33943 1.62805C9.53855 1.42894 9.77493 1.27099 10.0351 1.16323C10.2953 1.05546 10.5741 1 10.8557 1C11.1373 1 11.4161 1.05546 11.6763 1.16323C11.9364 1.27099 12.1728 1.42894 12.3719 1.62805C12.5711 1.82717 12.729 2.06356 12.8368 2.32372C12.9445 2.58388 13 2.86272 13 3.14431C13 3.42591 12.9445 3.70474 12.8368 3.9649C12.729 4.22506 12.5711 4.46145 12.3719 4.66057L5.16971 11.8628L1 13L2.13719 8.8303L9.33943 1.62805Z" stroke="#8E9CBB" stroke-width="2" stroke-linejoin="round"/>
</svg>
